<svg xmlns="http://www.w3.org/2000/svg" viewBox="0 0 295 291.36"><defs><style>.cls-2{fill:#24292e}</style></defs><g id="Layer_2" data-name="Layer 2"><g id="Layer_1-2" data-name="Layer 1"><path d="M171.29 131.41h104.68v76.13H171.29zM23.79 60.04h19.03v9.52H23.79zm95.16 9.51h19.03v9.52h-19.03zm-95.16 66.62h19.03v9.52H23.79zm95.16 9.51h19.03v9.52h-19.03zM23.79 212.3h19.03v9.52H23.79zm95.16 9.51h19.03v9.52h-19.03z" fill="#ecd4fa"/><path class="cls-2" d="M19.03 212.3h9.52v9.52h-9.52zm19.03 0h9.52v9.52h-9.52zm95.17 9.51h9.52v9.52h-9.52zm-19.04 0h9.52v9.52h-9.52zm-95.16-85.64h9.52v9.52h-9.52zm19.03 0h9.52v9.52h-9.52zm95.17 9.51h9.52v9.52h-9.52zm-19.04 0h9.52v9.52h-9.52zM19.03 60.04h9.52v9.52h-9.52zm19.03 0h9.52v9.52h-9.52zm95.17 9.51h9.52v9.52h-9.52zm-19.04 0h9.52v9.52h-9.52z"/><path class="cls-2" d="M280.73 64.8H232l-19 9.51h-51.23v-19A14.28 14.28 0 0 0 147.5 41H14.27A14.29 14.29 0 0 0 0 55.28v28.55A14.29 14.29 0 0 0 14.27 98.1H19v19h-4.73A14.3 14.3 0 0 0 0 131.41V160a14.29 14.29 0 0 0 14.27 14.27H19v19h-4.73A14.3 14.3 0 0 0 0 207.54v28.55a14.29 14.29 0 0 0 14.27 14.27H147.5a14.28 14.28 0 0 0 14.27-14.27v-9.52h119A14.29 14.29 0 0 0 295 212.3V79.07a14.29 14.29 0 0 0-14.27-14.27zM9.52 83.83V55.28a4.76 4.76 0 0 1 4.75-4.76H147.5a4.76 4.76 0 0 1 4.76 4.76v28.55a4.76 4.76 0 0 1-4.76 4.76H14.27a4.76 4.76 0 0 1-4.75-4.76zm19 14.27h104.71v19H28.55zm-19 61.9v-28.59a4.76 4.76 0 0 1 4.75-4.76H147.5a4.76 4.76 0 0 1 4.76 4.76V160a4.76 4.76 0 0 1-4.76 4.76H14.27A4.76 4.76 0 0 1 9.52 160zm19 14.27h104.71v19H28.55zm123.71 61.86a4.76 4.76 0 0 1-4.76 4.75H14.27a4.75 4.75 0 0 1-4.75-4.75v-28.59a4.76 4.76 0 0 1 4.75-4.76H147.5a4.76 4.76 0 0 1 4.76 4.76zm128.47-19h-119v-9.51a14.29 14.29 0 0 0-14.27-14.28h-4.76v-19h4.76A14.28 14.28 0 0 0 161.77 160v-28.59a14.29 14.29 0 0 0-14.27-14.28h-4.76v-19h4.76a14.28 14.28 0 0 0 14.27-14.27h53.47l19-9.52h46.46a4.76 4.76 0 0 1 4.75 4.76v23.79H171.29v9.52h114.19v99.89a4.75 4.75 0 0 1-4.75 4.75z"/><path class="cls-2" d="M228.39 83.83h47.58v9.52h-47.58zM209.35 41h80.89v-9.51h-90.4v6.57l-22.67-11.33 22.67-11.33V22h71.37v-9.54h-61.86V0l-53.46 26.73 53.46 26.73z"/><path class="cls-2" d="M280.73 12.46h9.52v9.52h-9.52zm-42.83 237.9h-66.61v9.52h76.13v-6.58l22.67 11.33L247.42 276v-6.58h-57.1v9.52h47.58v12.45l53.46-26.73-53.46-26.76z"/><path class="cls-2" d="M171.29 269.39h9.52v9.52h-9.52zm38.07-86.91l-10.91-10.91-6.73 6.72 17.64 17.64 46.18-46.18-6.73-6.75z"/></g></g></svg>