<svg xmlns="http://www.w3.org/2000/svg" viewBox="0 0 295 295"><defs><style>.cls-1{fill:#24292e}</style></defs><g id="Layer_2" data-name="Layer 2"><g id="Layer_1-2" data-name="Layer 1"><path class="cls-1" d="M263.66 0H180.8v152.26H295V31.34zm2.79 16.25l12.3 12.3h-12.3zm-76.13 126.49V9.52h66.61v28.55h28.55v104.67z"/><path class="cls-1" d="M233.14 102.71L222.23 91.8l-6.73 6.73 17.64 17.63L279.33 70l-6.73-6.73z"/><path class="cls-1" d="M266.45 123.71h-57.1V80.89h38.07v-9.52h-47.58v61.86H276V95.16h-9.51zM199.84 19.03h9.52v9.52h-9.52zm-66.62 76.13a4.76 4.76 0 1 1-4.75-4.75 4.76 4.76 0 0 1 4.75 4.75z"/><path d="M85.64 95.16a4.76 4.76 0 1 1-4.76-4.75 4.76 4.76 0 0 1 4.76 4.75z"/><path class="cls-1" d="M199.84 276v9.51h-72l-8.73-61.05 5.61-11.21 10.61 8.84 15.87-42.32 29.51 5.91a23.5 23.5 0 0 1 3.27.89l3.17-9a33.28 33.28 0 0 0-4.57-1.26L138 167.39v-14.94A49.41 49.41 0 0 0 149.77 133a23.75 23.75 0 0 0 21.52-23.57v-41c0-36.19-27.45-66.2-62.49-68.32a66.37 66.37 0 0 0-45.39 14.27C51.74 23.65 39 33.35 24.9 41.44l-8.29 4.78 3.46 4.33a68.19 68.19 0 0 0 18 15.75v43.13A23.74 23.74 0 0 0 59.23 133a47.85 47.85 0 0 0 12.14 19.91v14.52l-44.6 8.92A33.4 33.4 0 0 0 0 209v86h209.35v-19zM99.29 228.39h10.77l8.16 57.09H91.13zm12-9.52H98.1l-6-11.91 12.54-10.44L117.2 207zm-30.41-58.74a47.12 47.12 0 0 0 23.75 6.4c1.06 0 2.12 0 3.2-.1a45.84 45.84 0 0 0 20.64-6.43v8.79l-23.79 15.81-23.8-15.85zm60.86 17.71l-10.62 28.33-18.5-15.42 21.6-14.41zm10.2-54.9a51.81 51.81 0 0 0 .32-5.46V96a14.19 14.19 0 0 1-.32 26.9zM69.33 21.84a57.08 57.08 0 0 1 38.9-12.21c30 1.82 53.54 27.66 53.54 58.82v22.08a23.64 23.64 0 0 0-9.51-4.4v-5.24A14.3 14.3 0 0 0 138 66.61H73.29a58.35 58.35 0 0 1-42.1-17.8c14-8.23 26.6-17.81 38.14-27zM57.09 74.21v11.92a23.51 23.51 0 0 0-9.51 4.4V71.09a68.23 68.23 0 0 0 9.51 3.12zm-9.51 35.22A14.25 14.25 0 0 1 57.09 96v23c0 1.33.1 2.64.21 4a14.26 14.26 0 0 1-9.72-13.47zm19-33.62c2.21.22 4.43.32 6.68.32H138a4.76 4.76 0 0 1 4.76 4.76v36.59c0 20.83-15.6 38.17-35.53 39.45a38.06 38.06 0 0 1-40.6-38zm8.51 100.53l21.61 14.4-18.48 15.42-10.62-28.32zM9.52 209a23.86 23.86 0 0 1 19.12-23.33l29.51-5.9L74 222.06l10.6-8.84 5.61 11.2-8.73 61.06h-33.9v-71.37h-9.52v71.37H9.52z"/><path class="cls-1" d="M104.68 142.74a19 19 0 0 0 19-19h-9.52a9.52 9.52 0 1 1-19 0h-9.52a19.05 19.05 0 0 0 19 19zM218.87 19.03h28.55v9.52h-28.55zm-19.03 19.04h9.52v9.52h-9.52zm47.58 0v9.51h-28.55v-9.51"/><path d="M241.62 295h-26.47l-3-11.91a56.6 56.6 0 0 1-11-4.57l-10.53 6.32-18.71-18.71 6.32-10.53a56.86 56.86 0 0 1-4.57-11l-11.91-3v-26.44l11.91-3a56.26 56.26 0 0 1 4.57-11l-6.32-10.54 18.71-18.71 10.53 6.32a56.86 56.86 0 0 1 11-4.57l3-11.91h26.47l3 11.91a56.26 56.26 0 0 1 11 4.57l10.54-6.32 18.71 18.71-6.32 10.54a56.51 56.51 0 0 1 4.57 11l11.91 3v26.46l-11.91 3a56.6 56.6 0 0 1-4.57 11l6.32 10.53-18.71 18.71-10.54-6.32a56.51 56.51 0 0 1-11 4.57z" fill="#ecd4fa"/><path class="cls-1" d="M206.15 210.71l-15.98 17.67 15.98 17.68 7.41-4.61-11.81-13.07 11.81-13.06-7.41-4.61zm37.06 4.61l11.81 13.06-11.81 13.07 7.41 4.61 15.98-17.68-15.98-17.67-7.41 4.61zm-27.52 31.17l13.88-38.42 8.88 2.21-13.89 38.42-8.87-2.21z"/></g></g></svg>