<svg width="225" height="55" viewBox="0 0 225 55" xmlns="http://www.w3.org/2000/svg" xmlns:xlink="http://www.w3.org/1999/xlink"><defs><path id="a" d="M0 .014h233.84V55H0z"/></defs><g fill="none" fill-rule="evenodd"><path fill="#000" d="M57 40.84L62.164 14l8.557 19.39L79.353 14 84 40.84h-3.836l-2.508-15.05L70.5 42l-7.082-16.246-2.582 15.086z"/><mask id="b" fill="#fff"><use xlink:href="#a"/></mask><path d="M88.168 40.82h3.623V25.093h-3.623V40.82zm1.812-24.578c1.33 0 2.329 1.008 2.329 2.353 0 1.345-.999 2.353-2.33 2.353-1.33 0-2.328-1.008-2.328-2.353 0-1.345.998-2.353 2.329-2.353zm18.446 13.671c-1.663-1.644-3.29-1.942-4.4-1.942-1.7 0-2.772.709-3.437 1.381-.665.673-1.33 1.868-1.33 3.623 0 1.83.702 3.063 1.404 3.773.813.784 1.96 1.27 3.29 1.27A6.036 6.036 0 0 0 108.426 36v4.071c-.887.56-2.329 1.233-4.732 1.233-2.588 0-4.436-.747-5.915-2.316-1.109-1.158-2.218-3.025-2.218-5.902 0-2.95 1.22-4.93 2.366-6.088 1.22-1.232 3.18-2.316 6.248-2.316 1.183 0 2.588.187 4.251 1.12v4.11zm3.475-4.819h3.623v1.42c.406-.486.998-1.009 1.516-1.308.702-.41 1.404-.523 2.218-.523.887 0 1.848.15 2.846.747l-1.478 3.325c-.814-.523-1.48-.56-1.849-.56-.776 0-1.553.111-2.255.859-.998 1.083-.998 2.577-.998 3.623v8.142h-3.623V25.094zm23.659 7.919c0-3.586-2.329-5.043-4.62-5.043-2.293 0-4.622 1.457-4.622 5.043 0 3.025 1.775 5.005 4.622 5.005 2.846 0 4.62-1.98 4.62-5.005m3.697-.038c0 4.819-3.623 8.33-8.317 8.33-4.696 0-8.318-3.511-8.318-8.33 0-4.855 3.622-8.292 8.318-8.292 4.694 0 8.317 3.437 8.317 8.292m7.393-19.385v16.771l5.065-5.267h4.806l-6.691 6.537 7.172 9.188h-4.584l-5.102-6.723-.665.672v6.051h-3.623V13.59zm15.934 11.504v9.002c0 .934.037 2.017.666 2.838.48.635 1.33 1.084 2.365 1.084 1.035 0 1.886-.449 2.366-1.084.629-.821.666-1.904.666-2.838v-9.002h3.623v9.114c0 2.017-.222 3.698-1.664 5.155-1.405 1.419-3.327 1.942-5.065 1.942-1.59 0-3.511-.486-4.916-1.942-1.442-1.457-1.664-3.138-1.664-5.155v-9.114h3.623zm17.671 7.956c0 3.287 2.107 4.968 4.399 4.968 2.624 0 4.325-2.279 4.325-5.005 0-2.802-1.7-5.043-4.325-5.043-2.292 0-4.4 1.644-4.4 5.08zm.221-6.126c1.479-1.942 3.475-2.24 4.621-2.24 4.104 0 7.579 3.137 7.579 8.254 0 4.333-2.736 8.367-7.542 8.367-1.109 0-3.068-.262-4.658-2.13v1.644h-3.623V13.59h3.623v13.334zm26.321 3.922c-.147-.859-.554-1.606-1.108-2.129-.481-.448-1.257-.896-2.44-.896-1.257 0-2.07.523-2.551 1.008-.518.486-.924 1.233-1.11 2.017h7.21zm3.586 6.387c-.665 1.196-1.626 2.242-2.624 2.877-1.257.821-2.92 1.195-4.584 1.195-2.07 0-3.771-.523-5.25-2.017-1.478-1.494-2.292-3.66-2.292-6.014 0-2.428.85-4.78 2.477-6.461 1.294-1.308 2.994-2.13 5.213-2.13 2.476 0 4.066 1.084 4.99 2.055 1.996 2.091 2.181 5.005 2.181 6.648v.448H199.33c.074 1.121.554 2.391 1.33 3.175.851.86 1.886 1.009 2.773 1.009.999 0 1.738-.224 2.477-.785.629-.485 1.11-1.12 1.442-1.718l3.031 1.718zm10.684-7.993c-.37-.597-1.072-1.344-2.218-1.344-.518 0-.887.187-1.11.41a1.192 1.192 0 0 0-.332.822c0 .411.185.673.518.897.222.149.443.224 1.22.635l1.848.934c.813.41 1.59.821 2.181 1.456.85.859 1.146 1.83 1.146 2.914 0 1.419-.517 2.651-1.368 3.585-1.22 1.345-2.735 1.756-4.362 1.756-.998 0-2.255-.15-3.364-1.009-.887-.672-1.626-1.755-1.996-2.876l2.957-1.42c.185.524.518 1.196.85 1.495.222.224.74.598 1.59.598.555 0 1.146-.187 1.479-.524.296-.298.518-.784.518-1.232 0-.448-.148-.822-.481-1.195-.444-.448-.961-.71-1.553-.971l-1.33-.635c-.703-.337-1.553-.747-2.145-1.345-.813-.784-1.109-1.643-1.109-2.652 0-1.27.48-2.502 1.294-3.361.702-.748 1.885-1.495 3.808-1.495 1.109 0 1.996.225 2.883.822.518.336 1.22.934 1.775 1.943l-2.699 1.792z" fill="#000" mask="url(#b)"/><path fill="#6A1B9A" mask="url(#b)" d="M23.565.014v9.071l15.79 9.21v18.423l-15.79 9.211V55L47.13 41.254V13.76z"/><path fill="#4A148C" mask="url(#b)" d="M7.775 36.718V18.296l15.79-9.211V.015L0 13.76v27.493L23.565 55v-9.07z"/><path fill="#6A1B9A" mask="url(#b)" d="M10.957 19.772L23.5 27.127l12.672-7.355-.004-.002H10.961z"/><path fill="#4A148C" mask="url(#b)" d="M10.96 19.77h25.21l-12.604-7.357z"/></g></svg>