<svg xmlns="http://www.w3.org/2000/svg" viewBox="0 0 295 295"><defs><style>.cls-2{fill:#24292e}</style></defs><g id="Layer_2" data-name="Layer 2"><g id="Layer_1-2" data-name="Layer 1"><path d="M33.31 0h28.54v123.71H33.31V0zm47.58 28.55h28.55v95.16H80.89V28.55zm47.58 19.03h28.55v76.13h-28.55V47.58zm147.5 114.19h-95.16V0h95.16v161.77z" fill="#ecd4fa"/><path class="cls-2" d="M285.29 237l-47.39-7.89v-48.06a52.38 52.38 0 0 1 47.58 52.1c0 1.3-.1 2.58-.19 3.86zm-52.14 48.47a52.08 52.08 0 0 1-35.74-14.2l37.2-33.07 49.11 8.19a52.38 52.38 0 0 1-50.57 39.08zm-147.5 0v-19h95.16V266a62.08 62.08 0 0 0 19.52 19.52zm142.74-104.42v50l-37.3 33.16a52.22 52.22 0 0 1 37.3-83.12zm52.34-114.44H276v9.52h4.76a4.76 4.76 0 0 1 4.75 4.76v119.44a61.81 61.81 0 0 0-109.42 56.61H14.27a4.76 4.76 0 0 1-4.75-4.76V80.89a4.76 4.76 0 0 1 4.75-4.76h19v-9.52h-19A14.29 14.29 0 0 0 0 80.89v171.29a14.28 14.28 0 0 0 14.27 14.27h61.86v19H61.85V295h171.3A61.93 61.93 0 0 0 295 233.15V80.89a14.29 14.29 0 0 0-14.27-14.28z"/><path class="cls-2" d="M19.03 123.71h152.26v9.52H19.03v-9.52zm9.52 28.55h128.47v9.51H28.55v-9.51zm0 19.03h128.47v9.52H28.55v-9.52zm19.03 19.03h109.44v9.52H47.58v-9.52zm-19.03 0h9.51v9.52h-9.51v-9.52zm0 19.03h128.47v9.52H28.55v-9.52zm118.95 19.04h9.52v9.51h-9.52v-9.51zm-118.95 0h109.43v9.51H28.55v-9.51zM199.84 19.03h57.1v9.52h-57.1v-9.52zm19.03 19.03h38.07v9.52h-38.07v-9.52zm-19.03 0h9.51v9.52h-9.51v-9.52zm0 19.04h57.1v9.51h-57.1V57.1zm0 19.03h57.1v9.51h-57.1v-9.51zm0 19.03h57.1v9.52h-57.1v-9.52zm0 19.03h57.1v9.52h-57.1v-9.52zm47.58 19.04h9.52v9.51h-9.52v-9.51zm-47.58 0h38.06v9.51h-38.06v-9.51zm-42.82-66.62h23.79v9.52h-23.79v-9.52z"/></g></g></svg>