<svg xmlns="http://www.w3.org/2000/svg" viewBox="0 0 295 295"><defs><style>.cls-1{fill:#24292e}</style></defs><g id="Layer_2" data-name="Layer 2"><g id="Layer_1-2" data-name="Layer 1"><path class="cls-1" d="M28.55 123.71H0V95.16h28.55zm-19-9.52H19v-9.51H9.52zm28.51-19.03h28.55v9.52H38.06zm0 19.03h28.55v9.52H38.06zm28.55 47.58H38.06v-28.54h28.55zm-19-9.51h9.49v-9.52h-9.52zM0 133.23h28.55v9.52H0zm0 19.03h28.55v9.52H0zm28.55 47.58H0v-28.55h28.55zm-19-9.52H19v-9.51H9.52zm28.51-19.03h23.79v9.52H38.06zm0 19.03h23.79v9.52H38.06zM0 209.35h47.58v9.52H0zm0 19.04h47.58v9.52H0zM0 76.13h66.61v9.52H0zM0 57.1h66.61v9.52H0zm295 66.61h-28.55V95.16H295zm-19-9.52h9.51v-9.51H276zm-47.61-19.03h28.55v9.52h-28.55zm0 19.03h28.55v9.52h-28.55zm38.06 19.04H295v9.52h-28.55zm0 19.03H295v9.52h-28.55zM295 199.84h-28.55v-28.55H295zm-19-9.52h9.51v-9.51H276zm-42.85-19.03h23.79v9.52h-23.79zm0 19.03h23.79v9.52h-23.79zm14.27 19.03H295v9.52h-47.58zM218.87 138h-9.52V71.37a61.85 61.85 0 0 0-123.7 0V138h-9.52V71.37a71.37 71.37 0 0 1 142.74 0z"/><path class="cls-1" d="M199.84 123.71h-9.52V71.37a42.82 42.82 0 0 0-85.64 0v52.34h-9.52V71.37a52.34 52.34 0 0 1 104.68 0zm47.58 104.68H295v9.52h-47.58zM228.39 76.13H295v9.52h-66.61zm28.55 85.64h-28.55v-28.54h28.55zm-19-9.51h9.52v-9.52h-9.56zm-9.55-95.16H295v9.52h-66.61z"/><path d="M147.5 295a95.16 95.16 0 1 1 95.16-95.16A95.27 95.27 0 0 1 147.5 295z" fill="#ecd4fa"/><path class="cls-1" d="M172 252.18h-49l9-62.9a23.79 23.79 0 1 1 31.08 0zm-38-9.52h27.1l-8.26-57.79 2.52-1.66a14.27 14.27 0 1 0-15.62 0l2.52 1.66z"/><path class="cls-1" d="M204.75 249.92l-7.16-6.27a66.54 66.54 0 0 0-93.9-93.9l-6.26-7.16a76.05 76.05 0 0 1 107.32 107.33zM147.5 276a76.06 76.06 0 0 1-57.25-126.24l7.16 6.24a66.54 66.54 0 0 0 93.9 93.9l6.26 7.16A76 76 0 0 1 147.5 276z"/></g></g></svg>