<svg xmlns="http://www.w3.org/2000/svg" viewBox="0 0 295 295"><defs><style>.cls-2{fill:#24292e}</style></defs><g id="Layer_2" data-name="Layer 2"><g id="Layer_1-2" data-name="Layer 1"><path d="M66.61 57.1h76.13v76.13H66.61zm157.02 85.64A52.34 52.34 0 1 1 276 90.4a52.4 52.4 0 0 1-52.34 52.34z" fill="#ecd4fa"/><path class="cls-2" d="M142.74 57.1h-28.55v28.55h28.55zm-9.51 19h-9.52v-9.49h9.52zm-52.34 38.09h4.76v19h9.51v-28.51H80.89zm61.85-9.51h-28.55v28.55h28.55zm-9.51 19h-9.52v-9.52h9.52zM66.61 85.65h28.55V57.1H66.61zm9.52-19h9.52v9.52h-9.52z"/><path class="cls-2" d="M295 90.4A71.29 71.29 0 0 0 195.08 25V0H83.68L42.82 40.85V57.1H14.27A14.29 14.29 0 0 0 0 71.37v147.5a14.3 14.3 0 0 0 14.27 14.28h52.34v19h-19v9.51h142.71v-9.51h-19v-19h28.55v38.06a23.79 23.79 0 1 0 47.58 0v-85.65h-9.55v-25.22A71.49 71.49 0 0 0 295 90.4zm-9.52 0a61.86 61.86 0 1 1-61.85-61.85 61.93 61.93 0 0 1 61.85 61.85zm-99.92-60.27a71.19 71.19 0 0 0 0 120.54v15.86H52.34V47.58H90.4V9.52h95.16zM59.07 38.06l21.82-21.82v21.82zm102.7 214.12H76.13v-19h85.64zm-147.5-28.55a4.76 4.76 0 0 1-4.75-4.76V204.6h190.32v19zm185.57-38.07v9.52H9.52V71.37a4.76 4.76 0 0 1 4.75-4.76h28.55v109.44h152.26v-20.28a71.34 71.34 0 0 0 14.27 4.57v25.22zm38.06 85.65a14.28 14.28 0 0 1-28.55 0v-76.13h28.55zm-9.51-85.65h-9.52v-24c1.58.11 3.15.24 4.76.24s3.18-.13 4.76-.24z"/><path class="cls-2" d="M247.42 90.4h9.52a33.35 33.35 0 0 0-33.31-33.3v9.51a23.82 23.82 0 0 1 23.79 23.79zm-28.55 176.05h9.52v9.52h-9.52z"/></g></g></svg>